<?xml version="1.0" encoding="utf-8"?>
<!-- Generator: Adobe Illustrator 21.1.0, SVG Export Plug-In . SVG Version: 6.00 Build 0)  -->
<svg version="1.1" id="Layer_1" xmlns="http://www.w3.org/2000/svg" xmlns:xlink="http://www.w3.org/1999/xlink" x="0px" y="0px"
	 viewBox="0 0 612 792" style="enable-background:new 0 0 612 792;" xml:space="preserve">
<style type="text/css">
	.st0{fill:#FFFFFF;}
</style>
<path class="st0" d="M-1.1,611.1c0-177.2,0-354.5,0-531.8c205.1,0,410.3,0,615.7,0c0,177.2,0,354.5,0,531.8
	C409.5,611.1,204.2,611.1-1.1,611.1z M354.9,196.2c-1.9-0.9-3.9-1.7-5.7-2.7c-5.9-3.3-17.3-1.5-20.6,3.3c2.3-0.2,4.6-0.4,7.4-0.7
	c-0.9,1.3-1.4,2.1-2.1,3c7.1,0.6,13.9,1.1,20.8,1.7c0,1.6-0.6,3.6,0.1,4.6c3.3,4.3,6.8,8.5,10.7,12.2c9.4,9.1,21.7,7.7,28.9-3
	c1.7-2.5,3.4-5,5.1-7.6c5.2-7.7,5.1-8-1.5-14c1.8-3.7,2.7-8.7,5.6-10.6c3-1.9,8.4-2,11.9-0.7c4.6,1.6,4.5,7.7,0.4,12.8
	c0-1.6,0-2.8,0-4c-0.1-4.4-2-8.5-6.6-8c-2.1,0.2-4.8,4.5-5.4,7.4c-1.2,5.1,7.9,16,12.9,16c1.5,0,3.4-1.4,4.6-2.6
	c2.1-2.1,3.8-4.6,5.8-6.8c4.9-5.2,3.5-13-3-16c-1.2-0.6-2.4-1.7-3.1-2.9c-3.8-6.1-9.2-8.4-16.2-7.5c-6.8,0.8-8.4,6.4-9.9,11.6
	c-3,9.9-7.9,18.4-16.7,24.1c3.6-7.1,7.1-14.2,10.7-21.3c0.1,0.4,0,0.9,0.3,1.2c0.2,0.2,1,0.2,1.1,0c3.6-7,2.7-13.9-0.4-20.7
	c-2.6-5.5-6.1-10.1-13.3-9.6c-2.6,0.2-5.3,0.3-7.8-0.2c-6.7-1.3-9.8,1-9.6,8.1c0.1,3,2,6,1.8,8.9c-0.5,7,0.8,11.4,9.2,9.9
	c0.9-0.2,2.1,0.5,2.9,1.1c5.1,4.1,7-0.2,7.5-3.6c0.6-4.3-0.5-8.8-0.8-13.6c7,2.1,7.6,8.6,9.3,14.5c-0.8-1.4-1.6-2.8-3-5.3
	c-2.7,6-5.4,10.3-6.6,15c-1.2,4.6-1.8,9.1-6.9,10.9c-5.3,1.9-9.2-0.6-12.6-4.4c-1.2-1.3-2.2-2.7-3.5-3.8c-3.9-3-7.3-7.6-12.5-5.3
	C347.4,190.5,351.2,193.3,354.9,196.2z M287.7,449.6c-0.6-0.3-1.2-0.6-1.7-0.9c-0.8,0.9-1.7,1.7-2.2,2.7
	c-8.5,16.1-19.4,30.5-32.6,42.9c-6.9,6.5-14.3,13.2-22.7,17.1c-14,6.6-28.8,12.1-44.7,12.9c-8.4,0.5-17,3.1-25.2,2.2
	c-10-1.1-19.7-4.5-29.4-7.6c-15.9-5.1-28.6-15.4-39.4-27.7C77,476.8,67,460.7,59.2,442.9c-20.8-47.2-28.9-95.6-14.2-146.1
	c12-41.3,29-79.6,68.3-102.7c10.7-6.3,21.9-13.5,33.7-16c21.3-4.5,43.1-4.3,62.5,8.8c8.8,5.9,18.3,10.7,26.8,17
	c15.8,12,31,24.8,46.6,37c2.6,2.1,5.8,3.9,9,4.8c6.1,1.6,12.9-5.5,12.5-13.7c-0.4-8-1.2-16.2-3.4-23.9c-9.5-34.1-31.2-59.2-60.9-77
	c-13.1-7.9-27.9-13.3-44.2-12.1c-5.2,0.4-10.7-2.4-16-2.2c-9.7,0.4-19.5,1.2-29,3.3c-10.4,2.4-20.8,5.8-30.6,10.1
	c-10.1,4.5-20.6,9.4-29,16.4c-13.9,11.6-27.9,23.9-39,38.1c-15.4,19.8-26.7,42.2-35.1,66.1c-15.4,43.1-21,87.1-14.3,132.7
	c6.5,45,20.5,87,46.7,124.4c17.6,25,39,45.5,68,57.6c21.7,9,43.8,11,66.5,7.5c16.2-2.5,32.1-7.1,46.6-15.2c7.1-4,14.3-8.3,20.5-13.5
	c16.4-13.9,28.6-31.4,40.4-49.2c5.9-8.8,8.1-18.7,10.6-28.6c0.2-0.9-0.6-2.2-1-3.3c-2.8,4.7-5.4,9-7.9,13.2
	c-0.3-0.2-0.6-0.3-0.9-0.5c1.2-4.7,2.4-9.4,3.8-14.9c-7.3,9.6-14,18.4-20.6,27.1c-0.7-0.4-1.3-0.9-2-1.3c0.9-1.8,1.9-3.5,2.6-5.3
	c2.6-7,11.8-11.8,7.5-21.4c-0.4-1,0.9-2.8,1.5-4.2C286.1,453.8,286.9,451.7,287.7,449.6z M611.7,335.4c0.2,0,0.4,0,0.6,0
	c-0.6-12.6-0.1-25.4-2-37.9c-2.6-16.4-12.5-23.7-28.9-23.7c-16.6,0-33.3,0.1-49.9-0.1c-6.4-0.1-11.9,1.8-15.1,7.3
	c-3.6,6.3-8.4,13-8.8,19.7c-1.4,22.2-1.1,44.6-1.3,66.8c0,1.5,0.4,3.3,1.3,4.3c1.4,1.4,3.5,3.1,5.2,3c1.6-0.2,3.6-2.2,4.3-3.9
	c0.9-2.1,0.7-4.7,0.7-7.1c0-16.6-0.1-33.2,0-49.9c0-3.9,0.1-7.9,0.8-11.7c1.7-8.6,7.4-13.1,16.1-13.1c15.5,0,31.1,0,46.6,0
	c11.6,0,17.8,5,18.1,16.6c0.6,19.2,0.4,38.5,0.6,57.7c0,2.6,0,5.3,0.9,7.6c0.7,1.7,2.9,3.9,4.3,3.9c1.9-0.1,4.2-1.9,5.3-3.6
	c1.1-1.7,1.1-4.2,1.1-6.3C611.8,355,611.7,345.2,611.7,335.4z M296.4,273.8c-6.3,0-12.7,0.4-19-0.1c-11.2-0.9-19.2,4.4-26,12.3
	c-15.2,17.9-17.8,48.5-5.8,69c5.8,9.8,12.8,19.2,25,19.8c17.6,0.8,35.4-0.1,53-0.6c1.4,0,3.5-2.6,4-4.3c1.9-5.9-1.7-10.3-8.7-10.4
	c-14.4-0.1-28.9-0.1-43.3-0.1c-6.6,0-11.7-2.9-15.9-7.6c-11.2-12.5-12.4-27.1-7.6-42.3c3.8-12,14.4-21.4,29.1-20.8
	c13.3,0.6,26.7,0.1,40,0.1c5.1,0,7-3,6.8-7.6c-0.2-4.3-1.3-7.7-6.8-7.6C313,273.9,304.7,273.8,296.4,273.8z M412.1,293.6
	c7.2,11.6,13.8,22.1,20.3,32.7c9.4,15.2,18.6,30.4,28.3,45.4c1.2,1.9,4.9,3.8,6.7,3.3c1.8-0.5,3.8-4.1,3.8-6.4c0-3-1.1-6.5-2.8-9.1
	c-16.9-27.4-34-54.7-51-82c-3.4-5.4-7.6-5-11.3,1c-17.2,27.5-34.5,54.9-51.6,82.4c-1.4,2.3-2.3,5.4-2,8c0.3,2.3,2.2,5.8,4,6.3
	c1.9,0.5,5.5-1.4,6.8-3.3c4.5-6.4,8.1-13.4,12.3-20C387.4,332.8,399.4,313.9,412.1,293.6z M194.9,324.6c0,13.3,0,26.6,0,39.9
	c0,4.6-0.2,10.5,6,10.4c6.4-0.1,5.6-6.2,5.6-10.6c0.1-26.4,0-52.8,0-79.2c0-2.2,0.3-4.7-0.7-6.4c-1.1-2-3.3-4.2-5.2-4.5
	c-1.4-0.2-3.9,2.3-4.8,4.1c-1,2-0.8,4.7-0.8,7C194.9,298.4,194.9,311.5,194.9,324.6z M420.3,172.1c0.9-0.4,1.8-0.9,2.7-1.3
	c-1.4-6.4-2.7-12.8-4.2-19.2c-0.1-0.5-1.2-0.7-1.5-1.2c-1.4-2.1-3.4-4.1-3.9-6.4c-1.9-10.5-11.3-14.4-20.1-8.7
	c-4.6,3-11.8,2-13.4,9.3c0,0.2-1,0.1-1.2,0.3c-1.3,1.3-2.6,2.8-3.8,4.2c2,0.7,4,2.1,6,2c2.2-0.1,4.3-1.7,6.5-2.4
	c0.6-0.2,1.5,0.3,2.6,0.5c-1.8,1.2-3.3,2.3-4.2,2.9c3.7,6.7,7.2,12.8,10.1,18.2c6.3-2.3,12.6-4.7,17.9-6.7
	C416.3,166.7,418.3,169.4,420.3,172.1z M324.4,210.9c8.6,6.2,12.4,13.5,11.2,23.1c-0.2,1.3-0.6,2.9-0.1,3.9c1,1.9,2.5,4.6,4,4.7
	c1.7,0.1,4.5-1.9,5.2-3.6C349.8,225.8,340,211.3,324.4,210.9z M420,351.7c0.1-6-3.4-10.9-7.8-10.9c-4.4,0-8.2,5-8.2,10.8
	c0,6.3,2.8,9.7,8,9.7C417.2,361.4,419.9,358.1,420,351.7z"/>
<path d="M287.7,449.6c-0.8,2.1-1.7,4.2-2.5,6.3c-0.5,1.4-1.9,3.2-1.5,4.2c4.4,9.6-4.8,14.3-7.5,21.4c-0.7,1.8-1.7,3.6-2.6,5.3
	c0.7,0.4,1.3,0.9,2,1.3c6.7-8.8,13.3-17.5,20.6-27.1c-1.4,5.5-2.6,10.2-3.8,14.9c0.3,0.2,0.6,0.3,0.9,0.5c2.6-4.3,5.1-8.6,7.9-13.2
	c0.4,1.2,1.2,2.4,1,3.3c-2.6,9.9-4.8,19.7-10.6,28.6c-11.8,17.8-24,35.3-40.4,49.2c-6.2,5.3-13.4,9.5-20.5,13.5
	c-14.5,8.1-30.4,12.7-46.6,15.2c-22.7,3.4-44.8,1.5-66.5-7.5c-29-12-50.5-32.5-68-57.6C23.4,470.4,9.4,428.4,2.9,383.4
	c-6.6-45.6-1-89.5,14.3-132.7c8.5-23.8,19.8-46.3,35.1-66.1c11.1-14.2,25-26.5,39-38.1c8.4-7,18.8-11.9,29-16.4
	c9.8-4.3,20.2-7.7,30.6-10.1c9.4-2.2,19.3-2.9,29-3.3c5.3-0.2,10.7,2.6,16,2.2c16.3-1.2,31.2,4.3,44.2,12.1
	c29.6,17.8,51.4,43,60.9,77c2.2,7.7,3,15.9,3.4,23.9c0.4,8.3-6.4,15.3-12.5,13.7c-3.2-0.8-6.3-2.7-9-4.8
	c-15.6-12.3-30.8-25.1-46.6-37c-8.4-6.3-18-11.1-26.8-17c-19.5-13.2-41.2-13.3-62.5-8.8c-11.9,2.5-23,9.7-33.7,16
	C74,217.2,56.9,255.6,44.9,296.8c-14.6,50.4-6.5,98.8,14.2,146.1c7.8,17.8,17.8,33.9,30.6,48.3c10.9,12.3,23.5,22.6,39.4,27.7
	c9.6,3.1,19.4,6.6,29.4,7.6c8.2,0.9,16.7-1.8,25.2-2.2c15.9-0.9,30.7-6.3,44.7-12.9c8.4-4,15.8-10.7,22.7-17.1
	c13.3-12.4,24.1-26.8,32.6-42.9c0.5-1,1.5-1.8,2.2-2.7C286.5,448.9,287.1,449.3,287.7,449.6z"/>
<path d="M611.7,335.4c0,9.8,0.1,19.7,0,29.5c0,2.1,0,4.6-1.1,6.3c-1.1,1.7-3.4,3.5-5.3,3.6c-1.4,0.1-3.7-2.2-4.3-3.9
	c-0.9-2.3-0.9-5.1-0.9-7.6c-0.2-19.2,0-38.5-0.6-57.7c-0.4-11.5-6.5-16.6-18.1-16.6c-15.5,0-31.1,0-46.6,0
	c-8.6,0-14.4,4.6-16.1,13.1c-0.7,3.8-0.8,7.8-0.8,11.7c-0.1,16.6,0,33.2,0,49.9c0,2.4,0.2,5-0.7,7.1c-0.7,1.7-2.7,3.8-4.3,3.9
	c-1.6,0.2-3.8-1.6-5.2-3c-0.9-1-1.3-2.8-1.3-4.3c0.2-22.3-0.1-44.6,1.3-66.8c0.4-6.8,5.2-13.5,8.8-19.7c3.2-5.5,8.7-7.3,15.1-7.3
	c16.6,0.2,33.2,0.1,49.9,0.1c16.4,0,26.3,7.3,28.9,23.7c1.9,12.4,1.4,25.2,2,37.9C612.1,335.3,611.9,335.3,611.7,335.4z"/>
<path d="M296.4,273.8c8.3,0,16.6,0.1,25,0c5.5-0.1,6.6,3.3,6.8,7.6c0.2,4.6-1.7,7.6-6.8,7.6c-13.4,0-26.7,0.5-40-0.1
	c-14.7-0.7-25.2,8.7-29.1,20.8c-4.9,15.3-3.7,29.9,7.6,42.3c4.2,4.6,9.3,7.6,15.9,7.6c14.4-0.1,28.9-0.1,43.3,0.1
	c7,0.1,10.6,4.4,8.7,10.4c-0.6,1.8-2.6,4.3-4,4.3c-17.7,0.5-35.4,1.3-53,0.6c-12.3-0.5-19.2-10-25-19.8c-12-20.5-9.5-51,5.8-69
	c6.8-7.9,14.8-13.2,26-12.3C283.7,274.2,290,273.8,296.4,273.8z"/>
<path d="M412.1,293.6c-12.7,20.2-24.7,39.2-36.5,58.2c-4.1,6.6-7.8,13.6-12.3,20c-1.3,1.9-4.9,3.8-6.8,3.3c-1.8-0.5-3.7-3.9-4-6.3
	c-0.3-2.6,0.6-5.7,2-8c17.1-27.5,34.4-54.9,51.6-82.4c3.7-5.9,7.9-6.4,11.3-1c17,27.3,34.1,54.6,51,82c1.6,2.7,2.8,6.1,2.8,9.1
	c0,2.3-2,5.8-3.8,6.4c-1.8,0.5-5.5-1.4-6.7-3.3c-9.6-15-18.9-30.2-28.3-45.4C425.9,315.8,419.3,305.3,412.1,293.6z"/>
<path d="M378.3,205.9c8.9-5.7,13.8-14.2,16.8-24.1c1.5-5.2,3.2-10.7,9.9-11.6c6.9-0.9,12.4,1.4,16.2,7.5c0.7,1.2,1.9,2.3,3.1,2.9
	c6.5,3,8,10.8,3,16c-2.1,2.2-3.7,4.7-5.8,6.8c-1.2,1.2-3.1,2.6-4.6,2.6c-5.1-0.1-14.1-10.9-12.9-16c0.7-2.9,3.3-7.2,5.4-7.4
	c4.5-0.5,6.4,3.6,6.6,8c0,1.2,0,2.4,0,4c4.1-5.1,4.1-11.2-0.4-12.8c-3.6-1.3-9-1.2-11.9,0.7c-2.9,1.9-3.8,6.9-5.6,10.6
	c6.7,5.9,6.7,6.3,1.5,14c-1.7,2.5-3.4,5-5.1,7.6c-7.1,10.7-19.5,12.1-28.9,3c-3.9-3.8-7.4-8-10.7-12.2c-0.8-1-0.1-3-0.1-4.6
	c0.1,0.2,0.4,0.4,0.7,0.7c5.3,1.7,10.7,3.5,16,5.2C373.7,206.4,376,206.1,378.3,205.9z M363.3,208.7c7.8,10,17.5,8.7,23-1.5
	C378.2,214.4,370.8,213.2,363.3,208.7z"/>
<path d="M194.9,324.6c0-13.1,0-26.2,0-39.3c0-2.4-0.1-5,0.8-7c0.9-1.8,3.3-4.3,4.8-4.1c2,0.3,4.2,2.5,5.2,4.5c1,1.7,0.7,4.2,0.7,6.4
	c0,26.4,0.1,52.8,0,79.2c0,4.4,0.8,10.6-5.6,10.6c-6.2,0.1-6-5.8-6-10.4C194.8,351.2,194.9,337.9,194.9,324.6z"/>
<path d="M420.3,172.1c-2-2.7-4.1-5.4-6.4-8.5c-5.4,2-11.7,4.3-17.9,6.7c-3-5.3-6.4-11.5-10.1-18.2c0.9-0.6,2.4-1.6,4.2-2.9
	c-1.1-0.2-1.9-0.7-2.6-0.5c-2.2,0.7-4.3,2.3-6.5,2.4c-2,0.1-4-1.3-6-2c1.3-1.4,2.5-2.8,3.8-4.2c0.3-0.3,1.2-0.1,1.2-0.3
	c1.6-7.3,8.8-6.4,13.4-9.3c8.8-5.7,18.2-1.8,20.1,8.7c0.4,2.3,2.5,4.3,3.9,6.4c0.3,0.5,1.4,0.7,1.5,1.2c1.5,6.4,2.8,12.8,4.2,19.2
	C422.2,171.2,421.2,171.7,420.3,172.1z"/>
<path d="M389,180.6c-1.7-5.8-2.3-12.4-9.3-14.5c0.4,4.7,1.4,9.3,0.8,13.6c-0.5,3.4-2.4,7.7-7.5,3.6c-0.8-0.6-2-1.3-2.9-1.1
	c-8.4,1.5-9.7-2.9-9.2-9.9c0.2-2.9-1.7-5.9-1.8-8.9c-0.2-7.1,2.9-9.4,9.6-8.1c2.5,0.5,5.2,0.4,7.8,0.2c7.2-0.5,10.7,4,13.3,9.6
	c3.2,6.7,4.1,13.7,0.4,20.7c-0.1,0.2-0.9,0.2-1.1,0c-0.2-0.3-0.2-0.8-0.3-1.1C389,183.3,389,182,389,180.6z"/>
<path d="M324.4,210.9c15.6,0.4,25.4,14.9,20.3,28c-0.7,1.7-3.5,3.7-5.2,3.6c-1.4-0.1-3-2.9-4-4.7c-0.5-1-0.1-2.6,0.1-3.9
	C336.8,224.4,333,217.1,324.4,210.9z"/>
<path d="M389,180.6c0,1.4,0,2.7,0,4c-3.6,7-7.1,14.1-10.7,21.2c-2.3,0.2-4.6,0.5-6.9,0.7c-5.6-3.6-11.1-7.1-16.7-10.7l0.2,0.2
	c-3.7-2.8-7.5-5.7-11.1-8.5c5.3-2.2,8.7,2.3,12.5,5.3c1.3,1,2.4,2.5,3.5,3.8c3.4,3.8,7.4,6.3,12.6,4.4c5-1.8,5.7-6.3,6.9-10.9
	c1.2-4.7,3.9-9,6.6-15C387.4,177.8,388.2,179.2,389,180.6z"/>
<path d="M420,351.7c-0.1,6.4-2.8,9.7-8,9.6c-5.2-0.1-8-3.5-8-9.7c0-5.8,3.8-10.7,8.2-10.8C416.6,340.8,420.1,345.6,420,351.7z"/>
<path d="M355.4,201.4c-0.3-0.3-0.6-0.6-0.7-0.7c-6.8-0.5-13.7-1.1-20.8-1.7c0.7-0.9,1.2-1.7,2.1-3c-2.8,0.3-5.1,0.5-7.4,0.7
	c3.3-4.8,14.7-6.6,20.6-3.3c1.8,1,3.8,1.8,5.7,2.7c0,0-0.2-0.2-0.2-0.2C354.9,197.8,355.1,199.6,355.4,201.4z"/>
<path class="st0" d="M363.3,208.7c7.5,4.4,14.9,5.6,23-1.5C380.9,217.4,371.1,218.7,363.3,208.7z"/>
<path class="st0" d="M355.4,201.4c-0.2-1.8-0.5-3.6-0.7-5.4c5.6,3.6,11.1,7.1,16.7,10.7C366,204.9,360.7,203.1,355.4,201.4z"/>
</svg>
