<?xml version="1.0" encoding="utf-8"?>
<!-- Generator: Adobe Illustrator 21.1.0, SVG Export Plug-In . SVG Version: 6.00 Build 0)  -->
<svg version="1.1" id="Layer_1" xmlns="http://www.w3.org/2000/svg" xmlns:xlink="http://www.w3.org/1999/xlink" x="0px" y="0px"
	 viewBox="0 0 612 792" style="enable-background:new 0 0 612 792;" xml:space="preserve">
<style type="text/css">
	.st0{fill:#FEFEFE;}
	.st1{fill:#1163BE;}
	.st2{fill:#1263BE;}
	.st3{fill:#1263BF;}
	.st4{fill:#1264BF;}
	.st5{fill:#1364BF;}
	.st6{fill:#1566BF;}
	.st7{fill:#1565BF;}
	.st8{fill:#3379C8;}
	.st9{fill:#1F6CC2;}
	.st10{fill:#387CC9;}
	.st11{fill:#347AC8;}
	.st12{fill:#4786CD;}
	.st13{fill:#73A3D8;}
	.st14{fill:#80ACDC;}
	.st15{fill:#A8C6E7;}
	.st16{fill:#1B69C1;}
	.st17{fill:#528DD0;}
	.st18{fill:#4081CB;}
	.st19{fill:#2771C4;}
	.st20{fill:#699DD6;}
	.st21{fill:#E7EFF8;}
	.st22{fill:#2C74C5;}
	.st23{fill:#C4D8EE;}
	.st24{fill:#FDFEFE;}
	.st25{fill:#C1D6EE;}
	.st26{fill:#B0CBE9;}
	.st27{fill:#9ABCE3;}
	.st28{fill:#87B0DE;}
	.st29{fill:#518DD0;}
	.st30{fill:#4D8ACF;}
	.st31{fill:#94B8E1;}
	.st32{fill:#C7DAEF;}
	.st33{fill:#3B7ECA;}
	.st34{fill:#81ACDC;}
	.st35{fill:#8DB4E0;}
	.st36{fill:#6096D4;}
	.st37{fill:#D2E1F2;}
	.st38{fill:#96BAE2;}
	.st39{fill:#83ADDD;}
	.st40{fill:#1666C0;}
	.st41{fill:#6499D5;}
	.st42{fill:#A1C1E5;}
	.st43{fill:#B7CFEB;}
	.st44{fill:#2A73C5;}
	.st45{fill:#4D8ACE;}
	.st46{fill:#4987CD;}
	.st47{fill:#216DC2;}
	.st48{fill:#1465BF;}
	.st49{fill:#81ACDD;}
	.st50{fill:#4887CD;}
	.st51{fill:#3D80CA;}
</style>
<path class="st0" d="M267.6,60.5c81.1,0,162.2,0,243.3-0.1c3.6,0,4.3,0.7,4.3,4.3c-0.1,103.1-0.1,206.2,0,309.3
	c0,3.6-0.7,4.3-4.3,4.3c-162.2-0.1-324.4-0.1-486.6,0c-3.6,0-4.3-0.7-4.3-4.3c0.1-103.1,0.1-206.2,0-309.3c0-3.6,0.7-4.3,4.3-4.3
	C105.4,60.5,186.5,60.5,267.6,60.5z"/>
<path class="st1" d="M269.2,290.6c-4.4,8.7-9.7,16.8-16.3,24c-12.5,13.5-25.8,25.7-43.5,32.3c-43.3,16.3-85.3,15.9-125-9.9
	c-25.6-16.6-42.9-40.2-53.7-68.6c-7.7-20.3-11.3-41.3-8.5-63c2-15.3,7.1-29.6,14-43.4c14-28.2,35.4-49.3,63.2-63.5
	c15.2-7.8,31.8-11.8,48.8-13.9c11.2-1.4,22.4,0.1,33.6-0.1c15.8-0.3,30.6,4.3,43.3,11.8c16.7,9.9,33.1,21.8,39.6,42
	c1.4,4.5,2.2,9.2,2.7,13.9c0.6,5.1-6.9,12.2-13.3,8.6c-6.4-3.6-12.7-7.3-18.8-11.2c-14.5-9.3-30.2-16.1-45.9-23.2
	c-23.6-10.7-53.6-6.7-73.8,2.6c-35.6,16.3-54.8,45-61.9,82.3c-3.3,17.1,1,33.9,7.8,49.8c14.1,33,36.8,56.8,73.1,64.6
	c19.2,4.2,38.3,1.5,57.3-2.8c24.2-5.4,42.2-19.8,57.1-38.9c1.5-1.9,3-3.3,5.6-3c1,1.2,0.4,2.3-0.2,3.3c-0.7,1.2-1.5,2.3-1.1,3.7
	c0.1,0.8,0.8,1.6,0.1,2.5c-0.8,2.6-3.9,3.9-4.1,7.4c6.1-1.7,7-9,12.6-10.8c0.6,1.1,0.4,2.2,0,3.3c-0.4,0.5,0.2-0.3-0.2,0.3
	c0-0.1,0.2-0.2,0.2-0.3c0.7-1.5,1.5-2.8,3.2-3.4C267.3,287.2,268.6,288.5,269.2,290.6z"/>
<path class="st2" d="M471.5,176.9c7.4,0,14.8-0.1,22.2,0c11.5,0.1,20.3,8.9,20.4,20.4c0.1,11.6-0.1,23.2,0.1,34.8
	c0,3.7-1.1,6.6-5,6.7c-4.2,0.1-5.7-2.9-5.6-6.7c0-10.5,0.1-21.1,0-31.6c-0.1-9.4-3.3-12.6-12.8-12.6c-13,0-26,0-39,0
	c-9.6,0-12.7,3.1-12.7,12.6c0,10.4-0.1,20.7,0,31.1c0,4-1.1,7.4-5.6,7.3c-4.4-0.1-5.4-3.5-5.4-7.5c0.1-10.4,0-20.7,0.1-31.1
	c0.2-15.2,8.6-23.2,23.8-23.2C458.5,176.9,465,176.9,471.5,176.9z"/>
<path class="st1" d="M260.5,239.1c-5.6,0-11.3,0-16.9,0c-17.1-0.1-31-13.9-31.1-30.8c-0.1-17.1,13.8-31.2,31.1-31.3
	c11.8-0.1,23.6,0.1,35.4-0.1c4,0,7.5,0.9,7.4,5.4c-0.1,4.4-3.5,5.4-7.5,5.4c-12.5,0-25-0.7-37.4,0.4c-11.2,1-18.4,9.8-17.9,21.4
	c0.4,10.4,9,18.7,19.6,18.9c11.6,0.2,23.2,0.1,34.8,0c3.9,0,8,0.1,8.2,5.1c0.2,5.3-3.9,5.4-7.8,5.3c-6-0.1-12,0-17.9,0
	C260.5,238.8,260.5,239,260.5,239.1z"/>
<path class="st1" d="M401.9,233.9c-0.2,2-1.1,4-3.3,4.8c-2.8,1.1-5.1,0-6.9-2.3c-8.4-10.1-16.9-20.2-25.3-30.3
	c-3.4-4-6.9-7.9-10.1-12.2c-2.2-3-3.5-3.3-6-0.2c-11.5,14-23.2,27.8-34.8,41.6c-1.2,1.5-2.3,3.2-4.4,3.6c-2.4,0.4-4.6,0.2-6-2.1
	c-1.7-2.7-0.7-5,1.1-7.2c8.4-9.9,16.8-19.9,25.1-29.8c5.5-6.6,11-13.2,16.6-19.8c3.8-4.5,6.9-4.4,10.7,0.1
	c13.2,15.7,26.4,31.5,39.7,47.2C399.9,229.3,401.4,231.2,401.9,233.9z"/>
<path class="st3" d="M188.8,207.8c0,7.9-0.1,15.8,0,23.7c0,4-1.2,7.4-5.6,7.3c-4.5-0.1-5.4-3.6-5.4-7.5c0.1-15.7,0-31.3,0-47
	c0-3.9,1.1-7.3,5.7-7.3c4.2,0.1,5.4,3.2,5.4,7C188.8,192,188.8,199.9,188.8,207.8z"/>
<path class="st3" d="M358.9,117.6c1.4,2,2.8,4,5.7,4c1.2,0,2.2,1,2.8,2.1c1.7,3.1,1.2,6.6-1.5,7.9c-3.8,1.8-5.8,9.4-11.9,4.8
	c-2.2-1.7-4.3-2.7-6.8-3.2c-1.1-0.4-1.7-1.2-2-2.3c-0.4-1.8-0.1-3.5,0.4-5.2c-0.1-0.5,0.6-0.8,0.3-1.3c0,0.3-0.1,0.6-0.3,0.9
	c-0.4,1-0.4,2.1-1.2,2.9c-0.8,0.7-1.9,1-2.8,1.6c-0.5,0.4-1,0.8-1.5,1.2c-1.6,1.3-2.2,3.3-3.1,5c-2,2.7-4.8,4.2-7.9,5.5
	c-3.5,0.8-7.1,0.8-10.7,0.8c-2.7-1.3-6.6-1.4-6.3-5.9c1.5-1.2,3-0.4,4.4,0c6,1.6,10.9,0.4,14.1-5.3c1.1-1.1,2.5-2.1,3.3-3.5
	c1.4-1.8,2.9-3.5,3.8-5.7c0.5-1.1,0.9-2.3,1.5-3.3c2.1-2.5,4.6-4,7.8-4.6c2-0.2,4-0.1,5.9-0.4c0.7,0,1.4,0.1,2,0.6
	c1,0.9,2,1.6,3.4,1.7C359,116.5,359.5,116.9,358.9,117.6z"/>
<path class="st4" d="M338.9,122.9c-1.1,2-1.9,4.1-4.2,5.1c-0.2-0.2-0.4-0.4-0.6-0.5c-1-1.7-0.7-3.5-0.9-5.3c-0.2-1-0.2-2.1-1.2-3.5
	c-1.7,6.2-5.8,6.9-11,5.2c-2.8-0.3-6.9,1.6-8.3-1.5c-1.8-4-4.1-8.6-2.3-13.2c2.1-5.4,6.5-3,10.3-2.3c1.7-0.9,3.5-1.4,5.5-1.2
	c1.8,0,3.5,0.4,5.3,0.7c2.7,0.9,4.6,2.7,5.6,5.4c0.2,1.9,1.4,3.5,1.7,5.4C339.3,119,338.1,121,338.9,122.9z"/>
<path class="st5" d="M358.9,117.6c-0.3-0.4-0.5-0.8-0.8-1.2c-1.2-0.2-2-0.9-2.7-1.8c-0.2-0.4-0.4-0.8-0.6-1.1
	c-0.3-0.8-0.6-1.6-1-2.4c-0.6-1.1-1.4-1.8-2.4-2.4c-0.6-0.4-1.1-0.8-1.5-1.3c-0.9-1-1.5-2.2-2.4-3.1c-1-0.8-2.3-1.2-3.5-1.7
	c-1.5-0.8-2.9-0.2-4.3,0.5c-3.2,1-6.6,1.3-9.4,3.3c-0.8,0.1-1.5,0.1-2.3-0.1c-3-0.1-7.1,1-5.2-4.6c5.5-4.6,12.2-6.4,18.8-8.5
	c6-1.9,11.1,1.3,13.1,7.7c0.1,0.3,0,1,0.1,1c5.7,1,4.4,6.8,6.8,10.1C364.1,115,363.4,117.3,358.9,117.6z"/>
<path class="st5" d="M339.9,130.1c0.3-0.3,0.7-0.6,1-1c1.1,0,2.2,0,3.3,0.2c1,0.2,1.4,1,2,1.7c0.4,0.8,0.7,1.5,1.1,2.3
	c-2.7,4.5-6.4,8.2-10.3,11.6c-5.5,4.9-14.2,5-20.5,0.6c-4.2-2.9-7.9-6.3-11.4-10c-0.3-0.4-0.4-0.8-0.3-1.3c1.7-2.2,3.5-0.6,5.2,0
	c1.1,0.5,2.2,1,2.5,2.3c0.8,3.3,4.5,3.1,6.2,5.2c3.6,0.2,7.3,0.7,10.7-1.2c2.4-1.7,4.8-3.4,7.3-5.1
	C337.4,133.5,338.7,131.8,339.9,130.1z"/>
<path class="st6" d="M321,123.8c4.5-0.1,9.9,1.3,8.9-6.4c-0.1-0.8,0.3-1.5,1.1-1.4c0.6,0.1,1.6,0.4,1.8,0.9c0.7,1.6,1.2,3.3,1.7,4.9
	c-1.1,1.8-0.2,3.9-0.6,5.8c-0.4,1.5-1.1,2.8-2.6,3.6c-2.8,6.6-8.1,8.9-14.8,6.4c-2.1-2-4.8-2.6-7.4-3.5c-2.1-1.7-4.4-2.8-6.9-3.8
	c-2-2-5.2-1.2-7.1-3.2c4.5-2.2,8.7-1.5,12.6,1.4c1.8,1.3,3.5,2.9,5.4,4.1c2.4,1.5,5,2.3,8,1.3c3-1,4.5-2.9,5-6
	C327,122.9,321.8,126.3,321,123.8z"/>
<path class="st7" d="M286.2,139.6c8.3,0.6,13.1,4.6,14.3,12.1c0.5,3.4-0.2,6.4-3.5,8c-2.9,1.4-7-1-6.2-4c2.2-8.3-2.7-11.9-8.9-15
	C282.7,137.9,284.6,139.3,286.2,139.6z"/>
<path class="st7" d="M353.1,217c3.9-0.1,7,2.9,7.1,6.9c0.1,4.1-2.7,7.1-6.6,7.3c-4.1,0.2-7.4-3-7.4-7.1
	C346.1,220.2,349.2,217,353.1,217z"/>
<path class="st8" d="M269.2,290.6c-1.8-0.4-2.7-1.9-3.8-3.1c-1.5-0.9-1.2-2-0.4-3.2l-0.1-0.2c0.6-0.2,1.2-0.4,1.7-0.8
	c0.2-0.3,0.5-0.6,0.9-0.8c0.5-0.4,0.9-0.8,1.2-1.3c0.5-0.7,0.9-1.3,1.6-1.9c0.7-0.5,1.5-0.9,2.3-0.3
	C272.8,283.3,270.6,286.8,269.2,290.6z"/>
<path class="st9" d="M305.1,134.4c0,0.4,0,0.7,0,1.1c-4.8-3.6-10.6-0.9-15.8-2.3c-0.3-0.4-0.3-0.9,0-1.3c0.6-0.4,1.2-0.7,1.9-0.6
	c1.1,0.2,1.5-0.1,1.2-1.2c1.2-1.3,2.8-1.1,4.3-0.9c2,0.7,4.3,0.3,6.3,1.3C304.9,131.2,305.6,132.5,305.1,134.4z"/>
<path class="st10" d="M289.2,132.3c0,0.3,0,0.6,0,1c-2.8,0.3-5.2-0.4-7.5-2c0.1-1.4,0.7-2.5,2.1-3c1.5-0.2,2.9-0.3,4.4,0
	c1.4,0.5,1.1,1.4,0.7,2.4C289.1,131.2,289.2,131.8,289.2,132.3z"/>
<path class="st11" d="M286.2,139.6c-1.4,0.4-3.2-0.5-4.3,1.1c-2.6-0.1-5.1-0.2-7.7-0.3C278.2,138.3,282.1,138.1,286.2,139.6z"/>
<path class="st12" d="M295.2,126.9c2.9,0.4,6.4-0.8,7.8,3.2c-0.2,0.2-0.4,0.3-0.5,0.5c-0.5-0.1-0.9-0.1-1.4-0.3
	c-2.2-0.1-4.3-0.5-6.4-0.8c-0.4-0.3-0.7-0.7-0.8-1.2c0-0.5,0.2-0.9,0.6-1.3C294.7,126.8,295,126.7,295.2,126.9z"/>
<path class="st13" d="M265,284.3c0.1,1.1,0.3,2.1,0.4,3.2c-1.1,1.2-1.8,2.7-3.6,3.1l0,0c-0.7-1.1-0.5-2.2,0-3.4
	C261.8,285.1,262.7,284,265,284.3z"/>
<path class="st14" d="M322.8,101.5c-1.2,5.5,3.7,2.8,5.6,4.2c-0.1,0.7-0.7,0.7-1.1,1.1c-2.2,0-4.3,0-6.5,0
	C322.7,105.5,320.9,102.8,322.8,101.5z"/>
<path class="st15" d="M270.2,280.1c-0.4,0.7-0.7,1.4-1.1,2.1c-0.2,0.1-0.3,0.3-0.5,0.4c-0.4,0-0.8-0.2-1-0.6
	c-0.2-0.6,0.1-1.3-0.6-1.6c0.1-1.8-0.2-3.9,2.5-4.1C271.2,277.2,271.3,278.5,270.2,280.1z"/>
<path class="st16" d="M294.5,127c0,0.3,0,0.7,0,1c-3.1,2.6-6.6-0.4-9.8,0.6c-1-0.2-2.6,0.6-2.7-1.4C286.1,127.1,290.3,127,294.5,127
	z"/>
<path class="st17" d="M271.5,274.9c0.4-1.8,1.5-2.2,3-1.3c2.3,1.4,1.2,2.8-0.1,4.1C272.5,277.7,271.6,276.7,271.5,274.9z"/>
<path class="st18" d="M271.5,274.9c0.9,0.9,1.9,1.9,2.8,2.8c-0.6,0.5-1.2,0.9-1.8,1.4c-0.8,0.3-1.5,0.7-2.3,1
	c-0.2-1.3-0.5-2.6-0.7-3.9C270.4,276.1,271.1,275.7,271.5,274.9z"/>
<path class="st19" d="M257.4,281.1c1-0.5,2.4-0.9,1.8,0.7c-0.7,1.8-2.4,3.3-3.7,4.9c-0.7-0.1-1.2-0.6-1.6-1.2
	c-0.1-0.4-0.1-0.9,0.1-1.3C255.1,283,255.9,281.6,257.4,281.1z"/>
<path class="st20" d="M282,127.2c0.7,0.3,1.3,0.6,2,0.9c0.4,0.2,0.5,0.5,0.3,0.7c-0.1,0.2-0.2,0.3-0.4,0.3c-0.7,0.7-1.4,1.4-2.1,2.1
	C281.5,129.9,277,128.3,282,127.2z"/>
<path class="st21" d="M257.4,281.1c-0.5,1.5-1.5,2.6-3,3.3c-0.3,0.4-0.6,0.4-0.9-0.1c0.3-1.1,0.6-2.2,1-3.2
	C255.5,279.3,256.5,279.6,257.4,281.1z"/>
<path class="st22" d="M254.3,285.3c0.4,0.4,0.8,0.9,1.3,1.3c0.1,1.8-1,2.9-2.3,3.9c-0.4-0.6-0.7-1.2-1.1-1.8
	C252.4,287.3,253.1,286.2,254.3,285.3z"/>
<path class="st23" d="M268.1,283.2c-0.3,0-0.6,0-0.9,0.1c-0.5,0.4-1,0.4-1.4-0.1c0.1-0.9,0.3-1.7,1.2-2.1c0.4,0.2,0.6,0.5,0.7,0.9
	l0.4,0.3C268.4,282.6,268.4,282.9,268.1,283.2z"/>
<path class="st24" d="M267.8,282c-0.2-0.3-0.5-0.6-0.7-0.9c0-0.3,0-0.5-0.1-0.8C268.1,280.4,268,281.2,267.8,282z"/>
<path class="st25" d="M265.8,283.1c0.5,0,0.9,0.1,1.4,0.1c-0.5,1.1-1.3,1.2-2.3,0.8C265.2,283.8,265.5,283.5,265.8,283.1z"/>
<path class="st26" d="M254.3,285.3c0,1.6-0.8,2.7-2.1,3.5c-2.5-2.3,0.6-3.1,1.3-4.6c0.3-0.1,0.6-0.1,0.9,0.1
	C254.4,284.7,254.4,285,254.3,285.3z"/>
<path class="st27" d="M261.8,290.6c0.3,1.4,0.3,2.8-2,4C259.9,292.6,258.8,290.9,261.8,290.6C261.8,290.6,261.8,290.6,261.8,290.6z"
	/>
<path class="st28" d="M355.6,113.6c0,0.4-0.1,0.8-0.1,1.1c0.1,0.6-0.2,0.8-0.8,0.7c-0.4-0.3-0.7-0.7-1.1-1c-2,1.1-4.3-0.1-6.3,0.8
	c-3.3,0.3-5.3,2.8-7.8,4.5c-1.8-0.5-1.3-1.6-0.7-2.7C345.2,111.6,350.3,110.5,355.6,113.6z"/>
<path class="st29" d="M329.4,140.6c-3.2,3.2-6.9,2.7-10.7,1.2C322.2,140.6,325.8,140.9,329.4,140.6z"/>
<path class="st30" d="M309.3,133.4c3.1,0.2,6,0.8,7.4,4.1c-1.4-0.3-2.8-0.6-4.2-1c-1.1-0.4-2.1-0.7-3.2-1.1
	C308.7,134.8,308.6,134.1,309.3,133.4z"/>
<path class="st31" d="M346.2,131.1c-0.7-0.3-1.3-0.7-2-1c-0.7-0.7-0.7-1.4-0.2-2.2c0.5-1,0.9-2,1.4-3c0.4-0.4,0.8-0.4,1.2,0
	C346.4,127,346.3,129,346.2,131.1z"/>
<path class="st32" d="M339,117.3c-0.2,0.9-0.3,1.7,0.6,2.4c0.6,1.3-0.4,2.2-0.7,3.2c-2.1-1.9-0.6-4.3-1-6.4c0.3-0.3,0.6-0.4,1-0.2
	c0.2,0.2,0.3,0.5,0.2,0.7C339.1,117.2,339.1,117.3,339,117.3z"/>
<path class="st33" d="M339.9,130.1c-0.2,2.3-1.8,3.9-3.3,5.4C336.4,132.9,337.8,131.2,339.9,130.1z"/>
<path class="st34" d="M346.5,124.9c-0.4,0-0.8,0-1.2,0c0.4-1.6,1.4-2.6,3.5-2.8C349,123.9,347.4,124.2,346.5,124.9z"/>
<path class="st35" d="M356.8,129.3c-0.6-1.7-0.1-2.8,0.4-4.3C359.1,126.7,358.6,127.9,356.8,129.3z"/>
<path class="st36" d="M343.9,127.9c0.1,0.7,0.2,1.5,0.2,2.2c-1.2,0-2.4,0.2-3.3-1C341.6,128,342.9,128.1,343.9,127.9z"/>
<path class="st37" d="M331.5,131.2c0.7-1.1,1.4-2.1,2.1-3.2c0.4-0.5,0.7-0.5,1,0.2c0,0,0.2-0.1,0.2-0.1
	C334.5,130,334.3,131.9,331.5,131.2z"/>
<path class="st38" d="M347.4,115.2c1.9-1.6,4.2-0.6,6.3-0.8C351.8,116.3,349.5,115.1,347.4,115.2z"/>
<path class="st39" d="M354.8,115.4c0.4-0.1,0.6-0.3,0.8-0.7c1.2,0.1,2.1,0.7,2.6,1.8C356.5,117.7,355.6,116.6,354.8,115.4z"/>
<path class="st40" d="M339,117.3c0-0.3-0.1-0.6-0.2-0.8c-0.9-1.5-2-2.9-2.1-4.8c-1.6-1.6-3.2-3.2-4.8-4.8c-1,0.2-1.3-0.5-1.5-1.2
	c1.9-4.4,6.6-2.1,9.5-4.1c1.4,1.1,2.8-1,4.3,0c1.2,1,3.6-0.3,4.2,2c1.1,0.9-0.3,3.5,2.3,3.3c0.3,0.3,0.6,0.7,0.8,1
	c1,1.1,2.4,1.9,3.2,3.2c0.9,0.6,1,1.4,0.9,2.4C349.4,111.8,344.3,115,339,117.3z"/>
<path class="st41" d="M334.5,128.2c-0.3,0-0.7,0-1-0.2c0.5-2-1-4.4,1.1-6.2C334.6,123.9,334.5,126,334.5,128.2z"/>
<path class="st42" d="M336.7,111.7c1.4,1.3,2,2.9,2.1,4.8c0,0-0.5,0-0.5,0s-0.5,0-0.5,0C337.1,115,335.5,113.7,336.7,111.7z"/>
<path class="st43" d="M330.4,105.7c0.5,0.4,1,0.8,1.5,1.2c-1.6,1.8-3.1-0.7-4.6-0.1c0.4-0.4,0.7-0.7,1.1-1.1
	C329.1,105.8,329.7,105.7,330.4,105.7z"/>
<path class="st44" d="M344.1,101.7c-1.4,0.5-2.8,1.9-4.3,0C341.3,101.2,342.7,99.7,344.1,101.7z"/>
<path class="st45" d="M354.7,111.2c-1.4-0.8-3.2-1.1-3.2-3.2C353.5,108.1,354.6,109.1,354.7,111.2z"/>
<path class="st46" d="M350.6,107c-4.1,1.3-1.5-2.2-2.3-3.3C349.1,104.8,349.9,105.9,350.6,107z"/>
<path class="st22" d="M309.3,133.4c0,0.7,0,1.4,0,2.1c-1.3-0.6-2.4-2.4-4.2-1c-0.6-1.2-1-2.6-2.3-3.3c-0.2-0.2-0.3-0.4-0.2-0.6
	c0.1-0.2,0.1-0.3,0.2-0.3c0,0,0.3-0.1,0.3-0.1C306.2,129.2,307.6,131.5,309.3,133.4z"/>
<path class="st47" d="M268.1,283.2c-0.1-0.3-0.1-0.7,0.1-1c0.3-0.1,0.6-0.1,0.9-0.1C268.8,282.5,268.5,282.9,268.1,283.2z"/>
<path class="st48" d="M294.5,129c2.4,0.6,5.1-0.9,7.3,1.1c-1.7,0.9-3.4,0.8-5.1,0.1c-1.5,0.1-3.2-0.5-4.3,1
	c-1.4,0.9-2.8,0.7-4.2,0.1c-1.3-1.5,1.2-1.2,1-2.2C291,128.3,292.8,128.4,294.5,129z"/>
<path class="st49" d="M296.7,130.2c1.7,0,3.4-0.1,5.1-0.1c0.3,0.1,0.6,0.1,0.9,0.1c0.1,0.3,0.1,0.6,0,0.9
	C300.7,130.9,298.5,132.1,296.7,130.2z"/>
<path class="st50" d="M288.2,131.3c1.4,0,2.8-0.1,4.2-0.1c-0.4,2.1-2.2,0.6-3.1,1.1C288.9,132,288.6,131.6,288.2,131.3z"/>
<path class="st51" d="M294.5,129c-1.8,0-3.5,0.1-5.3,0.1c-1.8,0-3.6,0-5.3,0c0-0.3,0-0.7,0-1c3.5,0,7,0,10.5-0.1
	C294.5,128.4,294.5,128.7,294.5,129z"/>
</svg>
